<svg width="388" height="127" viewBox="0 0 388 127" fill="none" xmlns="http://www.w3.org/2000/svg">
<g clip-path="url(#clip0_1010_23897)">
<path d="M-0.9375 99.2656C-0.71875 98.9844 -0.25 98.3594 0.46875 97.3906C1.21875 96.4219 2.07812 95.125 3.04688 93.5C4.04688 91.875 5.10938 89.9375 6.23438 87.6875C7.35938 85.4062 8.42188 82.8281 9.42188 79.9531C10.4219 77.0781 11.2969 73.9062 12.0469 70.4375C12.8281 66.9688 13.3594 63.2344 13.6406 59.2344C14.0781 53.3594 14.4219 48.0156 14.6719 43.2031C14.9531 38.3906 15.1562 34.2656 15.2812 30.8281C15.4375 27.3906 15.5312 24.7344 15.5625 22.8594C15.625 20.9531 15.6562 19.9844 15.6562 19.9531L17.4844 19.7656C18.2969 23.7656 19.0938 27.875 19.875 32.0938C20.6562 36.3125 21.4531 40.5156 22.2656 44.7031C23.1094 48.8906 23.9688 53 24.8438 57.0312C25.7188 61.0312 26.6719 64.8281 27.7031 68.4219C28.7344 71.9844 29.8438 75.2812 31.0312 78.3125C32.2188 81.3125 33.5156 83.9062 34.9219 86.0938C36.3594 88.2812 37.9219 89.9844 39.6094 91.2031C41.3281 92.4219 43.2031 93.0312 45.2344 93.0312C46.5469 93.0312 47.9062 92.5781 49.3125 91.6719C50.7188 90.7656 52 89.2969 53.1562 87.2656C54.3125 85.2344 55.2656 82.5938 56.0156 79.3438C56.7656 76.0938 57.1406 72.1406 57.1406 67.4844C57.1406 64.7031 56.9844 61.6875 56.6719 58.4375C56.3906 55.1875 55.9375 51.8438 55.3125 48.4062C54.6875 44.9375 53.9062 41.4688 52.9688 38C52.0625 34.5312 50.9688 31.2031 49.6875 28.0156C48.4375 24.7969 47.0156 21.7812 45.4219 18.9688C43.8281 16.1562 42.0625 13.7031 40.125 11.6094L41.3906 10.2969C43.4531 12.5156 45.3125 15.0469 46.9688 17.8906C48.6562 20.7344 50.1406 23.7813 51.4219 27.0312C52.7344 30.2812 53.8594 33.6562 54.7969 37.1562C55.7344 40.6562 56.5 44.1562 57.0938 47.6562C57.7188 51.1562 58.1719 54.5938 58.4531 57.9688C58.7656 61.3438 58.9219 64.5156 58.9219 67.4844C58.9219 71.3906 58.5938 75.1406 57.9375 78.7344C57.2812 82.3281 56.2656 85.5 54.8906 88.25C53.5469 91 51.8438 93.1875 49.7812 94.8125C47.7188 96.4375 45.2656 97.25 42.4219 97.25C40.1719 97.25 38.1094 96.6875 36.2344 95.5625C34.3906 94.4688 32.7031 92.9375 31.1719 90.9688C29.6406 89 28.2656 86.6719 27.0469 83.9844C25.8594 81.2656 24.7969 78.3281 23.8594 75.1719C22.9219 71.9844 22.0938 68.6406 21.375 65.1406C20.6562 61.6094 20.0312 58.0312 19.5 54.4062C18.9688 50.7812 18.5 47.1719 18.0938 43.5781C17.7188 39.9844 17.3906 36.5312 17.1094 33.2188C16.9531 36.5938 16.7031 40.4844 16.3594 44.8906C16.0469 49.2656 15.75 54.0781 15.4688 59.3281C15.1562 64.7031 14.5938 69.5312 13.7812 73.8125C13 78.0938 11.9531 81.9062 10.6406 85.25C9.35938 88.5938 7.84375 91.5156 6.09375 94.0156C4.34375 96.5469 2.34375 98.7188 0.09375 100.531L-0.9375 99.2656Z" fill="#008080"/>
<path d="M87.88 75V54.008H90.632L98.216 67.192L100.488 71.544H100.616C100.552 70.4773 100.477 69.3787 100.392 68.248C100.328 67.096 100.296 65.9653 100.296 64.856V54.008H102.824V75H100.072L92.456 61.784L90.184 57.464H90.056C90.1413 58.5093 90.216 59.5867 90.28 60.696C90.3653 61.8053 90.408 62.9147 90.408 64.024V75H87.88ZM114.647 75.384C113.26 75.384 112.001 75.064 110.871 74.424C109.74 73.7627 108.844 72.824 108.183 71.608C107.521 70.392 107.191 68.9413 107.191 67.256C107.191 65.5493 107.521 64.088 108.183 62.872C108.865 61.656 109.74 60.7173 110.807 60.056C111.873 59.3947 112.993 59.064 114.167 59.064C116.151 59.064 117.676 59.7253 118.743 61.048C119.831 62.3707 120.375 64.1413 120.375 66.36C120.375 66.6373 120.364 66.9147 120.343 67.192C120.343 67.448 120.321 67.672 120.279 67.864H109.783C109.889 69.5067 110.401 70.8187 111.319 71.8C112.257 72.7813 113.473 73.272 114.967 73.272C115.713 73.272 116.396 73.1653 117.015 72.952C117.655 72.7173 118.263 72.4187 118.839 72.056L119.767 73.784C119.105 74.2107 118.348 74.584 117.495 74.904C116.663 75.224 115.713 75.384 114.647 75.384ZM109.751 65.976H118.071C118.071 64.3973 117.729 63.2027 117.047 62.392C116.385 61.56 115.447 61.144 114.231 61.144C113.143 61.144 112.161 61.5707 111.287 62.424C110.433 63.256 109.921 64.44 109.751 65.976ZM121.823 75L126.911 66.872L122.207 59.448H125.055L127.135 62.872C127.37 63.2773 127.615 63.704 127.871 64.152C128.127 64.6 128.394 65.0373 128.671 65.464H128.799C129.034 65.0373 129.268 64.6 129.503 64.152C129.738 63.704 129.972 63.2773 130.207 62.872L132.095 59.448H134.847L130.143 67.16L135.199 75H132.351L130.079 71.384C129.802 70.9147 129.524 70.4453 129.247 69.976C128.97 69.5067 128.682 69.048 128.383 68.6H128.255C127.978 69.048 127.711 69.5067 127.455 69.976C127.199 70.424 126.943 70.8933 126.687 71.384L124.575 75H121.823ZM142.395 75.384C140.731 75.384 139.568 74.904 138.907 73.944C138.267 72.984 137.947 71.736 137.947 70.2V61.592H135.643V59.608L138.075 59.448L138.395 55.096H140.603V59.448H144.795V61.592H140.603V70.232C140.603 71.192 140.774 71.9387 141.115 72.472C141.478 72.984 142.107 73.24 143.003 73.24C143.28 73.24 143.579 73.1973 143.899 73.112C144.219 73.0053 144.507 72.9093 144.763 72.824L145.275 74.808C144.848 74.9573 144.379 75.0853 143.867 75.192C143.376 75.32 142.886 75.384 142.395 75.384ZM156.824 75.384C154.989 75.384 153.357 74.9573 151.928 74.104C150.498 73.2293 149.378 71.9813 148.568 70.36C147.757 68.7387 147.352 66.7867 147.352 64.504C147.352 62.2427 147.768 60.3013 148.6 58.68C149.432 57.0587 150.573 55.8107 152.024 54.936C153.474 54.0613 155.128 53.624 156.984 53.624C158.434 53.624 159.65 53.9013 160.632 54.456C161.634 54.9893 162.434 55.576 163.032 56.216L161.56 57.944C161.026 57.3893 160.408 56.92 159.704 56.536C159 56.152 158.114 55.96 157.048 55.96C155.64 55.96 154.413 56.312 153.368 57.016C152.322 57.6987 151.512 58.6693 150.936 59.928C150.381 61.1867 150.104 62.6907 150.104 64.44C150.104 67.0853 150.701 69.1867 151.896 70.744C153.112 72.28 154.84 73.048 157.08 73.048C157.826 73.048 158.541 72.9413 159.224 72.728C159.906 72.4933 160.45 72.184 160.856 71.8V66.328H156.408V64.12H163.288V72.952C162.626 73.656 161.73 74.2427 160.6 74.712C159.49 75.16 158.232 75.384 156.824 75.384ZM174.366 75.384C172.979 75.384 171.72 75.064 170.59 74.424C169.459 73.7627 168.563 72.824 167.902 71.608C167.24 70.392 166.91 68.9413 166.91 67.256C166.91 65.5493 167.24 64.088 167.902 62.872C168.584 61.656 169.459 60.7173 170.526 60.056C171.592 59.3947 172.712 59.064 173.885 59.064C175.87 59.064 177.395 59.7253 178.462 61.048C179.55 62.3707 180.094 64.1413 180.094 66.36C180.094 66.6373 180.083 66.9147 180.062 67.192C180.062 67.448 180.04 67.672 179.998 67.864H169.502C169.608 69.5067 170.12 70.8187 171.038 71.8C171.976 72.7813 173.192 73.272 174.686 73.272C175.432 73.272 176.115 73.1653 176.734 72.952C177.374 72.7173 177.982 72.4187 178.558 72.056L179.486 73.784C178.824 74.2107 178.067 74.584 177.214 74.904C176.382 75.224 175.432 75.384 174.366 75.384ZM169.47 65.976H177.79C177.79 64.3973 177.448 63.2027 176.766 62.392C176.104 61.56 175.166 61.144 173.95 61.144C172.862 61.144 171.88 61.5707 171.006 62.424C170.152 63.256 169.64 64.44 169.47 65.976ZM183.937 75V59.448H186.113L186.337 61.688H186.433C187.179 60.9413 187.969 60.3227 188.801 59.832C189.633 59.32 190.582 59.064 191.649 59.064C193.291 59.064 194.486 59.5867 195.233 60.632C196.001 61.656 196.385 63.16 196.385 65.144V75H193.761V65.496C193.761 64.0453 193.526 62.9893 193.057 62.328C192.587 61.6667 191.841 61.336 190.817 61.336C190.027 61.336 189.313 61.5387 188.673 61.944C188.054 62.3493 187.35 62.9467 186.561 63.736V75H183.937ZM210.403 75L205.955 54.008H208.707L210.915 65.432C211.107 66.5627 211.309 67.6933 211.523 68.824C211.736 69.9547 211.939 71.0853 212.131 72.216H212.259C212.493 71.0853 212.739 69.9547 212.995 68.824C213.251 67.672 213.496 66.5413 213.731 65.432L216.643 54.008H219.075L221.987 65.432C222.243 66.5413 222.499 67.672 222.755 68.824C223.011 69.9547 223.267 71.0853 223.523 72.216H223.651C223.843 71.0853 224.035 69.9547 224.227 68.824C224.419 67.672 224.621 66.5413 224.835 65.432L227.043 54.008H229.603L225.251 75H222.051L218.883 62.36C218.691 61.5493 218.509 60.76 218.339 59.992C218.189 59.2027 218.029 58.4027 217.859 57.592H217.731C217.581 58.4027 217.411 59.2027 217.219 59.992C217.027 60.76 216.845 61.5493 216.675 62.36L213.571 75H210.403ZM239.303 75.384C237.916 75.384 236.658 75.064 235.527 74.424C234.396 73.7627 233.5 72.824 232.839 71.608C232.178 70.392 231.847 68.9413 231.847 67.256C231.847 65.5493 232.178 64.088 232.839 62.872C233.522 61.656 234.396 60.7173 235.463 60.056C236.53 59.3947 237.65 59.064 238.823 59.064C240.807 59.064 242.332 59.7253 243.399 61.048C244.487 62.3707 245.031 64.1413 245.031 66.36C245.031 66.6373 245.02 66.9147 244.999 67.192C244.999 67.448 244.978 67.672 244.935 67.864H234.439C234.546 69.5067 235.058 70.8187 235.975 71.8C236.914 72.7813 238.13 73.272 239.623 73.272C240.37 73.272 241.052 73.1653 241.671 72.952C242.311 72.7173 242.919 72.4187 243.495 72.056L244.423 73.784C243.762 74.2107 243.004 74.584 242.151 74.904C241.319 75.224 240.37 75.384 239.303 75.384ZM234.407 65.976H242.727C242.727 64.3973 242.386 63.2027 241.703 62.392C241.042 61.56 240.103 61.144 238.887 61.144C237.799 61.144 236.818 61.5707 235.943 62.424C235.09 63.256 234.578 64.44 234.407 65.976ZM255.754 75.384C255.029 75.384 254.271 75.2133 253.482 74.872C252.714 74.5093 251.989 74.0187 251.306 73.4H251.21L250.986 75H248.874V52.216H251.498V58.424L251.434 61.24C252.138 60.6213 252.906 60.1093 253.738 59.704C254.591 59.2773 255.445 59.064 256.298 59.064C258.325 59.064 259.861 59.7787 260.906 61.208C261.951 62.6373 262.474 64.5573 262.474 66.968C262.474 68.7387 262.154 70.2533 261.514 71.512C260.895 72.7707 260.074 73.7307 259.05 74.392C258.047 75.0533 256.949 75.384 255.754 75.384ZM255.306 73.176C256.586 73.176 257.642 72.632 258.474 71.544C259.327 70.4347 259.754 68.92 259.754 67C259.754 65.2933 259.434 63.9173 258.794 62.872C258.175 61.8053 257.13 61.272 255.658 61.272C254.997 61.272 254.325 61.4533 253.642 61.816C252.959 62.1787 252.245 62.7013 251.498 63.384V71.544C252.181 72.1413 252.853 72.568 253.514 72.824C254.197 73.0587 254.794 73.176 255.306 73.176ZM269.122 75L264.674 54.008H267.426L269.634 65.432C269.826 66.5627 270.028 67.6933 270.242 68.824C270.455 69.9547 270.658 71.0853 270.85 72.216H270.978C271.212 71.0853 271.458 69.9547 271.714 68.824C271.97 67.672 272.215 66.5413 272.45 65.432L275.362 54.008H277.794L280.706 65.432C280.962 66.5413 281.218 67.672 281.474 68.824C281.73 69.9547 281.986 71.0853 282.242 72.216H282.37C282.562 71.0853 282.754 69.9547 282.946 68.824C283.138 67.672 283.34 66.5413 283.554 65.432L285.762 54.008H288.322L283.97 75H280.77L277.602 62.36C277.41 61.5493 277.228 60.76 277.058 59.992C276.908 59.2027 276.748 58.4027 276.578 57.592H276.45C276.3 58.4027 276.13 59.2027 275.938 59.992C275.746 60.76 275.564 61.5493 275.394 62.36L272.29 75H269.122ZM297.766 75.384C296.507 75.384 295.323 75.064 294.214 74.424C293.126 73.784 292.24 72.856 291.558 71.64C290.896 70.424 290.566 68.9627 290.566 67.256C290.566 65.5067 290.896 64.024 291.558 62.808C292.24 61.592 293.126 60.664 294.214 60.024C295.323 59.384 296.507 59.064 297.766 59.064C299.046 59.064 300.23 59.384 301.318 60.024C302.406 60.664 303.28 61.592 303.942 62.808C304.624 64.024 304.966 65.5067 304.966 67.256C304.966 68.9627 304.624 70.424 303.942 71.64C303.28 72.856 302.406 73.784 301.318 74.424C300.23 75.064 299.046 75.384 297.766 75.384ZM297.766 73.208C299.11 73.208 300.187 72.664 300.998 71.576C301.83 70.4667 302.246 69.0267 302.246 67.256C302.246 65.464 301.83 64.0133 300.998 62.904C300.187 61.7947 299.11 61.24 297.766 61.24C296.443 61.24 295.366 61.7947 294.534 62.904C293.702 64.0133 293.286 65.464 293.286 67.256C293.286 69.0267 293.702 70.4667 294.534 71.576C295.366 72.664 296.443 73.208 297.766 73.208ZM309.062 75V59.448H311.238L311.462 62.264H311.558C312.091 61.2827 312.742 60.504 313.51 59.928C314.278 59.352 315.099 59.064 315.974 59.064C316.592 59.064 317.147 59.1707 317.638 59.384L317.126 61.688C316.87 61.6027 316.635 61.5387 316.422 61.496C316.208 61.4533 315.942 61.432 315.622 61.432C314.96 61.432 314.267 61.6987 313.542 62.232C312.838 62.7653 312.219 63.6933 311.686 65.016V75H309.062ZM320.155 75V52.216H322.747V67.64H322.843L329.467 59.448H332.379L327.163 65.688L333.083 75H330.203L325.659 67.512L322.747 70.904V75H320.155ZM340.063 75.384C338.954 75.384 337.898 75.1813 336.895 74.776C335.892 74.3493 335.018 73.8373 334.271 73.24L335.583 71.48C336.266 72.0133 336.97 72.4613 337.695 72.824C338.42 73.1653 339.242 73.336 340.159 73.336C341.183 73.336 341.951 73.1013 342.463 72.632C342.975 72.1413 343.231 71.5653 343.231 70.904C343.231 70.3707 343.05 69.9227 342.687 69.56C342.346 69.1973 341.898 68.8987 341.343 68.664C340.81 68.408 340.255 68.1733 339.679 67.96C338.954 67.6827 338.239 67.3733 337.535 67.032C336.831 66.6693 336.255 66.2107 335.807 65.656C335.359 65.08 335.135 64.3547 335.135 63.48C335.135 62.2213 335.604 61.176 336.543 60.344C337.503 59.4907 338.826 59.064 340.511 59.064C341.471 59.064 342.367 59.2347 343.199 59.576C344.031 59.9173 344.746 60.3333 345.343 60.824L344.063 62.488C343.53 62.0827 342.975 61.752 342.399 61.496C341.823 61.24 341.194 61.112 340.511 61.112C339.53 61.112 338.804 61.336 338.335 61.784C337.887 62.232 337.663 62.7547 337.663 63.352C337.663 63.8427 337.823 64.248 338.143 64.568C338.463 64.8667 338.879 65.1333 339.391 65.368C339.903 65.5813 340.447 65.8053 341.023 66.04C341.77 66.3173 342.506 66.6373 343.231 67C343.956 67.3413 344.554 67.8107 345.023 68.408C345.514 68.984 345.759 69.7627 345.759 70.744C345.759 71.576 345.535 72.344 345.087 73.048C344.66 73.752 344.02 74.3173 343.167 74.744C342.335 75.1707 341.3 75.384 340.063 75.384Z" fill="black"/>
</g>
<defs>
<clipPath id="clip0_1010_23897">
<rect width="388" height="127" fill="white"/>
</clipPath>
</defs>
</svg>
